{
  "accessors": [
    {
      "bufferView": 2,
      "componentType": 5126,
      "count": 216,
      "max": [
        2.492677688598633,
        2.1855051517486572,
        0.2876659631729126
      ],
      "min": [
        -2.495983123779297,
        -2.1787831783294678,
        -0.044959768652915955
      ],
      "type": "VEC3"
    },
    {
      "bufferView": 2,
      "byteOffset": 2592,
      "componentType": 5126,
      "count": 216,
      "max": [
        1.0,
        1.0,
        1.0
      ],
      "min": [
        -1.0,
        -1.0,
        -1.0
      ],
      "type": "VEC3"
    },
    {
      "bufferView": 1,
      "componentType": 5126,
      "count": 216,
      "max": [
        0.9966199994087219,
        0.9948445558547974
      ],
      "min": [
        0.0069880704395473,
        0.006677363067865372
      ],
      "type": "VEC2"
    },
    {
      "bufferView": 0,
      "componentType": 5125,
      "count": 384,
      "type": "SCALAR"
    },
    {
      "bufferView": 2,
      "byteOffset": 5184,
      "componentType": 5126,
      "count": 2636,
      "max": [
        84.57193756103516,
        146.4359130859375,
        3.539592742919922
      ],
      "min": [
        7.62939453125e-06,
        7.62939453125e-06,
        -5.570728778839111
      ],
      "type": "VEC3"
    },
    {
      "bufferView": 2,
      "byteOffset": 36816,
      "componentType": 5126,
      "count": 2636,
      "max": [
        1.0,
        1.0,
        1.0
      ],
      "min": [
        -1.0,
        -1.0,
        -1.0
      ],
      "type": "VEC3"
    },
    {
      "bufferView": 1,
      "byteOffset": 1728,
      "componentType": 5126,
      "count": 2636,
      "max": [
        0.5008782744407654,
        0.9521175622940063
      ],
      "min": [
        0.04280058667063713,
        0.05624297261238098
      ],
      "type": "VEC2"
    },
    {
      "bufferView": 0,
      "byteOffset": 1536,
      "componentType": 5125,
      "count": 4170,
      "type": "SCALAR"
    },
    {
      "bufferView": 2,
      "byteOffset": 68448,
      "componentType": 5126,
      "count": 24,
      "max": [
        77.67786407470703,
        140.30970764160156,
        -5.570724010467529
      ],
      "min": [
        6.026706695556641,
        10.150032043457031,
        -5.57072639465332
      ],
      "type": "VEC3"
    },
    {
      "bufferView": 2,
      "byteOffset": 68736,
      "componentType": 5126,
      "count": 24,
      "max": [
        0.0,
        3.6353650756382194e-08,
        1.0
      ],
      "min": [
        0.0,
        1.1706531743982396e-08,
        1.0
      ],
      "type": "VEC3"
    },
    {
      "bufferView": 1,
      "byteOffset": 22816,
      "componentType": 5126,
      "count": 24,
      "max": [
        0.45552563667297363,
        1.0
      ],
      "min": [
        0.0,
        0.0
      ],
      "type": "VEC2"
    },
    {
      "bufferView": 0,
      "byteOffset": 18216,
      "componentType": 5125,
      "count": 36,
      "type": "SCALAR"
    },
    {
      "bufferView": 2,
      "byteOffset": 69024,
      "componentType": 5126,
      "count": 2600,
      "max": [
        0.0,
        4.003476619720459,
        0.09677049517631531
      ],
      "min": [
        -2.3538098335266113,
        0.0,
        -0.152300626039505
      ],
      "type": "VEC3"
    },
    {
      "bufferView": 2,
      "byteOffset": 100224,
      "componentType": 5126,
      "count": 2600,
      "max": [
        1.0,
        1.0,
        1.0
      ],
      "min": [
        -1.0,
        -1.0,
        -1.0
      ],
      "type": "VEC3"
    },
    {
      "bufferView": 1,
      "byteOffset": 23008,
      "componentType": 5126,
      "count": 2600,
      "max": [
        0.9602870345115662,
        0.9521175622940063
      ],
      "min": [
        0.5008509755134583,
        0.05624297261238098
      ],
      "type": "VEC2"
    },
    {
      "bufferView": 0,
      "byteOffset": 18360,
      "componentType": 5125,
      "count": 4170,
      "type": "SCALAR"
    },
    {
      "bufferView": 2,
      "byteOffset": 131424,
      "componentType": 5126,
      "count": 24,
      "max": [
        -0.2008802890777588,
        3.835988998413086,
        -0.15230050683021545
      ],
      "min": [
        -2.1717824935913086,
        0.2774960398674011,
        -0.15230056643486023
      ],
      "type": "VEC3"
    },
    {
      "bufferView": 2,
      "byteOffset": 131712,
      "componentType": 5126,
      "count": 24,
      "max": [
        0.0,
        4.155358013235855e-08,
        1.0
      ],
      "min": [
        -1.4300717943172003e-08,
        0.0,
        1.0
      ],
      "type": "VEC3"
    },
    {
      "bufferView": 1,
      "byteOffset": 43808,
      "componentType": 5126,
      "count": 24,
      "max": [
        1.0,
        1.0
      ],
      "min": [
        0.545555830001831,
        0.0
      ],
      "type": "VEC2"
    },
    {
      "bufferView": 0,
      "byteOffset": 35040,
      "componentType": 5125,
      "count": 36,
      "type": "SCALAR"
    }
  ],
  "asset": {
    "extras": {
      "author": "Mário Mendes (https://sketchfab.com/mariomendesdeveloper)",
      "license": "CC-BY-4.0 (http://creativecommons.org/licenses/by/4.0/)",
      "source": "https://sketchfab.com/3d-models/window-bd087ed6ca314a9d9e39c0fa04239c14",
      "title": "Window"
    },
    "generator": "Sketchfab-12.65.0",
    "version": "2.0"
  },
  "bufferViews": [
    {
      "buffer": 0,
      "byteLength": 35184,
      "name": "floatBufferViews",
      "target": 34963
    },
    {
      "buffer": 0,
      "byteLength": 44000,
      "byteOffset": 35184,
      "byteStride": 8,
      "name": "floatBufferViews",
      "target": 34962
    },
    {
      "buffer": 0,
      "byteLength": 132000,
      "byteOffset": 79184,
      "byteStride": 12,
      "name": "floatBufferViews",
      "target": 34962
    }
  ],
  "buffers": [
    {
      "byteLength": 211184,
      "uri": "window.bin"
    }
  ],
  "extensionsRequired": [
    "KHR_materials_pbrSpecularGlossiness"
  ],
  "extensionsUsed": [
    "KHR_materials_pbrSpecularGlossiness"
  ],
  "images": [
    {
      "uri": "textures/frame_diffuse.png"
    }
  ],
  "materials": [
    {
      "doubleSided": true,
      "extensions": {
        "KHR_materials_pbrSpecularGlossiness": {
          "diffuseFactor": [
            1.0,
            1.0,
            1.0,
            1.0
          ],
          "diffuseTexture": {
            "index": 0
          },
          "glossinessFactor": 0.1788854381999832,
          "specularFactor": [
            0.0,
            0.0,
            0.0
          ]
        }
      },
      "name": "frame"
    },
    {
      "doubleSided": true,
      "extensions": {
        "KHR_materials_pbrSpecularGlossiness": {
          "diffuseFactor": [
            1.0,
            1.0,
            1.0,
            1.0
          ],
          "diffuseTexture": {
            "index": 0
          },
          "glossinessFactor": 1.0,
          "specularFactor": [
            0.0,
            0.0,
            0.0
          ]
        }
      },
      "name": "window"
    },
    {
      "doubleSided": true,
      "extensions": {
        "KHR_materials_pbrSpecularGlossiness": {
          "diffuseFactor": [
            0.8,
            0.8,
            0.8,
            1.0
          ],
          "glossinessFactor": 1.0,
          "specularFactor": [
            0.16507873188228367,
            0.16507873188228367,
            0.16507873188228367
          ]
        }
      },
      "name": "windowGlass"
    }
  ],
  "meshes": [
    {
      "name": "frame_frame_0",
      "primitives": [
        {
          "attributes": {
            "NORMAL": 1,
            "POSITION": 0,
            "TEXCOORD_0": 2
          },
          "indices": 3,
          "material": 0,
          "mode": 4
        }
      ]
    },
    {
      "name": "LeftWindow_window_0",
      "primitives": [
        {
          "attributes": {
            "NORMAL": 5,
            "POSITION": 4,
            "TEXCOORD_0": 6
          },
          "indices": 7,
          "material": 1,
          "mode": 4
        }
      ]
    },
    {
      "name": "LeftWindow_windowGlass_0",
      "primitives": [
        {
          "attributes": {
            "NORMAL": 9,
            "POSITION": 8,
            "TEXCOORD_0": 10
          },
          "indices": 11,
          "material": 2,
          "mode": 4
        }
      ]
    },
    {
      "name": "RightWindow_window_0",
      "primitives": [
        {
          "attributes": {
            "NORMAL": 13,
            "POSITION": 12,
            "TEXCOORD_0": 14
          },
          "indices": 15,
          "material": 1,
          "mode": 4
        }
      ]
    },
    {
      "name": "RightWindow_windowGlass_0",
      "primitives": [
        {
          "attributes": {
            "NORMAL": 17,
            "POSITION": 16,
            "TEXCOORD_0": 18
          },
          "indices": 19,
          "material": 2,
          "mode": 4
        }
      ]
    }
  ],
  "nodes": [
    {
      "children": [
        1
      ],
      "matrix": [
        1.0,
        0.0,
        0.0,
        0.0,
        0.0,
        2.220446049250313e-16,
        -1.0,
        0.0,
        0.0,
        1.0,
        2.220446049250313e-16,
        0.0,
        0.0,
        0.0,
        0.0,
        1.0
      ],
      "name": "Sketchfab_model"
    },
    {
      "children": [
        2
      ],
      "matrix": [
        0.009999999776482582,
        0.0,
        0.0,
        0.0,
        0.0,
        0.0,
        0.009999999776482582,
        0.0,
        0.0,
        -0.009999999776482582,
        0.0,
        0.0,
        0.0,
        0.0,
        0.0,
        1.0
      ],
      "name": "cd483032bc5741aaa541af9ce3083f87.fbx"
    },
    {
      "children": [
        3,
        5,
        8
      ],
      "name": "RootNode"
    },
    {
      "children": [
        4
      ],
      "matrix": [
        100.0,
        0.0,
        0.0,
        0.0,
        0.0,
        99.9999999999999,
        4.371138828673792e-06,
        0.0,
        0.0,
        -5.157988839177686e-06,
        118.0010299682616,
        0.0,
        0.9058833122253418,
        200.6483612060547,
        -3.155040740966797,
        1.0
      ],
      "name": "frame"
    },
    {
      "mesh": 0,
      "name": "frame_frame_0"
    },
    {
      "children": [
        6,
        7
      ],
      "matrix": [
        2.7339437620515787,
        -2.7888163544966396e-18,
        0.0015074226065546078,
        0.0,
        -6.589154318013063e-11,
        2.73394441604614,
        1.1950449747166732e-07,
        0.0,
        -0.0015074226065546065,
        -1.1950450521546415e-07,
        2.733943762051576,
        0.0,
        -230.30911254882813,
        -0.5567550659179688,
        6.769713878631592,
        1.0
      ],
      "name": "LeftWindow"
    },
    {
      "mesh": 1,
      "name": "LeftWindow_window_0"
    },
    {
      "mesh": 2,
      "name": "LeftWindow_windowGlass_0"
    },
    {
      "children": [
        9,
        10
      ],
      "matrix": [
        99.99990317964067,
        6.89262508863961e-16,
        -0.133559663242598,
        0.0,
        5.838079004588602e-09,
        99.9999999999999,
        4.371135640554704e-06,
        0.0,
        0.13355966324259785,
        -4.371139205724129e-06,
        99.99990317964057,
        0.0,
        236.28688049316406,
        -0.5567371845245361,
        6.769713878631592,
        1.0
      ],
      "name": "RightWindow"
    },
    {
      "mesh": 3,
      "name": "RightWindow_window_0"
    },
    {
      "mesh": 4,
      "name": "RightWindow_windowGlass_0"
    }
  ],
  "samplers": [
    {
      "magFilter": 9729,
      "minFilter": 9987,
      "wrapS": 10497,
      "wrapT": 10497
    }
  ],
  "scene": 0,
  "scenes": [
    {
      "name": "Sketchfab_Scene",
      "nodes": [
        0
      ]
    }
  ],
  "textures": [
    {
      "sampler": 0,
      "source": 0
    }
  ]
}
