{
  "accessors": [
    {
      "bufferView": 2,
      "componentType": 5126,
      "count": 25,
      "max": [
        334.05780029296875,
        334.05780029296875,
        0.0
      ],
      "min": [
        -334.05780029296875,
        -334.05780029296875,
        0.0
      ],
      "type": "VEC3"
    },
    {
      "bufferView": 2,
      "byteOffset": 300,
      "componentType": 5126,
      "count": 25,
      "max": [
        0.0,
        0.0,
        1.0
      ],
      "min": [
        0.0,
        0.0,
        1.0
      ],
      "type": "VEC3"
    },
    {
      "bufferView": 1,
      "componentType": 5126,
      "count": 25,
      "max": [
        1.0,
        1.0
      ],
      "min": [
        0.0,
        0.0
      ],
      "type": "VEC2"
    },
    {
      "bufferView": 0,
      "componentType": 5125,
      "count": 96,
      "type": "SCALAR"
    },
    {
      "bufferView": 2,
      "byteOffset": 600,
      "componentType": 5126,
      "count": 52189,
      "max": [
        171.68359375,
        117.54499816894531,
        84.19862365722656
      ],
      "min": [
        -171.68359375,
        -117.54499816894531,
        15.822669982910156
      ],
      "type": "VEC3"
    },
    {
      "bufferView": 2,
      "byteOffset": 626868,
      "componentType": 5126,
      "count": 52189,
      "max": [
        1.0,
        1.0,
        1.0
      ],
      "min": [
        -1.0,
        -1.0,
        -1.0
      ],
      "type": "VEC3"
    },
    {
      "bufferView": 3,
      "componentType": 5126,
      "count": 52189,
      "max": [
        1.0,
        1.0,
        0.9999997615814209,
        1.0
      ],
      "min": [
        -1.0,
        -1.0,
        -0.9999995231628418,
        -1.0
      ],
      "type": "VEC4"
    },
    {
      "bufferView": 1,
      "byteOffset": 200,
      "componentType": 5126,
      "count": 52189,
      "max": [
        0.9810420870780945,
        0.9994999766349792
      ],
      "min": [
        0.0005000000237487257,
        0.0005000000237487257
      ],
      "type": "VEC2"
    },
    {
      "bufferView": 1,
      "byteOffset": 417712,
      "componentType": 5126,
      "count": 52189,
      "max": [
        17.960329055786133,
        17.9148006439209
      ],
      "min": [
        0.0284175593405962,
        0.03233572095632553
      ],
      "type": "VEC2"
    },
    {
      "bufferView": 0,
      "byteOffset": 384,
      "componentType": 5125,
      "count": 288480,
      "type": "SCALAR"
    },
    {
      "bufferView": 2,
      "byteOffset": 1253136,
      "componentType": 5126,
      "count": 4206,
      "max": [
        164.91690063476563,
        116.02220153808594,
        16.119489669799805
      ],
      "min": [
        -167.9611053466797,
        -109.25150299072266,
        -0.13928790390491486
      ],
      "type": "VEC3"
    },
    {
      "bufferView": 2,
      "byteOffset": 1303608,
      "componentType": 5126,
      "count": 4206,
      "max": [
        1.0,
        1.0,
        1.0
      ],
      "min": [
        -1.0,
        -1.0,
        -1.0
      ],
      "type": "VEC3"
    },
    {
      "bufferView": 1,
      "byteOffset": 835224,
      "componentType": 5126,
      "count": 4206,
      "max": [
        0.9903972148895264,
        0.9836801290512085
      ],
      "min": [
        0.0005000049713999033,
        0.0005000000237487257
      ],
      "type": "VEC2"
    },
    {
      "bufferView": 1,
      "byteOffset": 868872,
      "componentType": 5126,
      "count": 4206,
      "max": [
        21.373519897460938,
        17.895790100097656
      ],
      "min": [
        19.828279495239258,
        15.992650032043457
      ],
      "type": "VEC2"
    },
    {
      "bufferView": 0,
      "byteOffset": 1154304,
      "componentType": 5125,
      "count": 7920,
      "type": "SCALAR"
    }
  ],
  "asset": {
    "extras": {
      "author": "MADE.COM (https://sketchfab.com/made-it)",
      "license": "CC-BY-NC-4.0 (http://creativecommons.org/licenses/by-nc/4.0/)",
      "source": "https://sketchfab.com/3d-models/monterosso-left-hand-corner-sofastorm-blue-4232249310824cd99ff7d1c5ae4a9660",
      "title": "Monterosso Left Hand Corner Sofa,Storm Blue"
    },
    "generator": "Sketchfab-12.68.0",
    "version": "2.0"
  },
  "bufferViews": [
    {
      "buffer": 0,
      "byteLength": 1185984,
      "name": "floatBufferViews",
      "target": 34963
    },
    {
      "buffer": 0,
      "byteLength": 902520,
      "byteOffset": 1185984,
      "byteStride": 8,
      "name": "floatBufferViews",
      "target": 34962
    },
    {
      "buffer": 0,
      "byteLength": 1354080,
      "byteOffset": 2088504,
      "byteStride": 12,
      "name": "floatBufferViews",
      "target": 34962
    },
    {
      "buffer": 0,
      "byteLength": 835024,
      "byteOffset": 3442584,
      "byteStride": 16,
      "name": "floatBufferViews",
      "target": 34962
    }
  ],
  "buffers": [
    {
      "byteLength": 4277608,
      "uri": "Sofa.bin"
    }
  ],
  "images": [
    {
      "uri": "textures/FABRIC_baseColor.jpeg"
    },
    {
      "uri": "textures/FABRIC_normal.png"
    },
    {
      "uri": "textures/EnvironmentAmbientLight_baseColor.png"
    }
  ],
  "materials": [
    {
      "doubleSided": true,
      "name": "FABRIC",
      "normalTexture": {
        "index": 1,
        "scale": 0.5870807927
      },
      "pbrMetallicRoughness": {
        "baseColorTexture": {
          "index": 0
        },
        "metallicFactor": 0.0
      }
    },
    {
      "doubleSided": true,
      "name": "CHROME",
      "pbrMetallicRoughness": {
        "baseColorFactor": [
          0.2573057854,
          0.2573057854,
          0.2573057854,
          1.0
        ],
        "roughnessFactor": 0.1114710366
      }
    },
    {
      "alphaMode": "BLEND",
      "doubleSided": true,
      "name": "EnvironmentAmbientLight",
      "pbrMetallicRoughness": {
        "baseColorFactor": [
          0.0,
          0.0,
          0.0,
          1.0
        ],
        "baseColorTexture": {
          "index": 2
        },
        "metallicFactor": 0.0
      }
    }
  ],
  "meshes": [
    {
      "name": "Floor",
      "primitives": [
        {
          "attributes": {
            "NORMAL": 1,
            "POSITION": 0,
            "TEXCOORD_0": 2
          },
          "indices": 3,
          "material": 2,
          "mode": 4
        }
      ]
    },
    {
      "name": "FABRIC",
      "primitives": [
        {
          "attributes": {
            "NORMAL": 5,
            "POSITION": 4,
            "TANGENT": 6,
            "TEXCOORD_0": 7,
            "TEXCOORD_1": 8
          },
          "indices": 9,
          "material": 0,
          "mode": 4
        }
      ]
    },
    {
      "name": "CHROME",
      "primitives": [
        {
          "attributes": {
            "NORMAL": 11,
            "POSITION": 10,
            "TEXCOORD_0": 12,
            "TEXCOORD_1": 13
          },
          "indices": 14,
          "material": 1,
          "mode": 4
        }
      ]
    }
  ],
  "nodes": [
    {
      "children": [
        1
      ],
      "matrix": [
        1.0,
        0.0,
        0.0,
        0.0,
        0.0,
        2.220446049250313e-16,
        -1.0,
        0.0,
        0.0,
        1.0,
        2.220446049250313e-16,
        0.0,
        0.0,
        0.0,
        0.0,
        1.0
      ],
      "name": "Sketchfab_model"
    },
    {
      "children": [
        2,
        4,
        7
      ],
      "name": "Collada visual scene group"
    },
    {
      "children": [
        3
      ],
      "name": "Plane002"
    },
    {
      "mesh": 0,
      "name": "Floor"
    },
    {
      "children": [
        5,
        6
      ],
      "name": "Monterosso_Left_Hand_Facing_Corner_Sofa"
    },
    {
      "mesh": 1,
      "name": "FABRIC"
    },
    {
      "mesh": 2,
      "name": "CHROME"
    },
    {
      "children": [
        8
      ],
      "name": "EnvironmentAmbientLight"
    },
    {
      "name": "EnvironmentAmbientLight"
    }
  ],
  "samplers": [
    {
      "magFilter": 9729,
      "minFilter": 9987,
      "wrapS": 10497,
      "wrapT": 10497
    }
  ],
  "scene": 0,
  "scenes": [
    {
      "name": "Sketchfab_Scene",
      "nodes": [
        0
      ]
    }
  ],
  "textures": [
    {
      "sampler": 0,
      "source": 0
    },
    {
      "sampler": 0,
      "source": 1
    },
    {
      "sampler": 0,
      "source": 2
    }
  ]
}
